# xmcd CD database file
#
# Track frame offsets:
#	150
#	9075
#	17925
#	27300
#	36600
#	45562
#	50287
#	59625
#	68925
#	81450
#	91050
#	100912
#	110775
#	120075
#	129375
#	139650
#	149850
#	161850
#	173812
#	183037
#	195375
#	207675
#	212475
#	217312
#	222075
#	226875
#	231572
#	236400
#	241237
#	246075
#	250875
#	255675
#	260625
#	263137
#	265725
#	268312
#	270937
#	273562
#	276225
#	278737
#	281325
#	283912
#	286500
#	289087
#	291675
#	294262
#	296812
#	299400
#	302025
#	304575
#	307125
#	309712
#	312225
#	313237
#	314287
#	315337
#	316350
#	317475
#	318525
#	319575
#	320700
#	321712
#	322800
#
# Disc length: 4319 seconds
#
# Revision: 1
# Processed by: cddbd v1.4PL0 Copyright (c) Steve Scherf et al.
# Submitted via: CDex 1.50
#
DISCID=ed10dd3f
DTITLE=Specialty 69 A - Blues Journey - A FC-569A
DYEAR=1998
DGENRE=Blues
TTITLE0=Blues Journey 
TTITLE1=Blues Journey 
TTITLE2=Blues Journey 
TTITLE3=Blues Journey 
TTITLE4=Blues Journey 
TTITLE5=Blues Journey 
TTITLE6=Blues Journey 
TTITLE7=Blues Journey 
TTITLE8=Blues Journey 
TTITLE9=Blues Journey 
TTITLE10=Blues Journey 
TTITLE11=Blues Journey 
TTITLE12=Blues Journey 
TTITLE13=Blues Journey 
TTITLE14=Blues Journey 
TTITLE15=Blues Journey 
TTITLE16=Blues Journey 
TTITLE17=Blues Journey 
TTITLE18=Blues Journey 
TTITLE19=Blues Journey 
TTITLE20=Blues Journey 
TTITLE21=Blues Journey 
TTITLE22=Blues Journey 
TTITLE23=Blues Journey 
TTITLE24=Blues Journey 
TTITLE25=Blues Journey 
TTITLE26=Blues Journey 
TTITLE27=Blues Journey 
TTITLE28=Blues Journey 
TTITLE29=Blues Journey 
TTITLE30=Blues Journey 
TTITLE31=Blues Journey 
TTITLE32=Blues Journey 
TTITLE33=Blues Journey 
TTITLE34=Blues Journey 
TTITLE35=Blues Journey 
TTITLE36=Blues Journey 
TTITLE37=Blues Journey 
TTITLE38=Blues Journey 
TTITLE39=Blues Journey 
TTITLE40=Blues Journey 
TTITLE41=Blues Journey 
TTITLE42=Blues Journey 
TTITLE43=Blues Journey 
TTITLE44=Blues Journey 
TTITLE45=Blues Journey 
TTITLE46=Blues Journey 
TTITLE47=Blues Journey 
TTITLE48=Blues Journey
TTITLE49=Blues Journey 
TTITLE50=Blues Journey 
TTITLE51=Blues Journey 
TTITLE52=Blues Journey 
TTITLE53=Blues Journey 
TTITLE54=Blues Journey 
TTITLE55=Blues Journey 
TTITLE56=Blues Journey 
TTITLE57=Blues Journey 
TTITLE58=Blues Journey 
TTITLE59=Blues Journey 
TTITLE60=Blues Journey 
TTITLE61=Blues Journey 
TTITLE62=Blues Journey 
EXTD=YEAR: 1998
EXTT0=
EXTT1=
EXTT2=
EXTT3=
EXTT4=
EXTT5=
EXTT6=
EXTT7=
EXTT8=
EXTT9=
EXTT10=
EXTT11=
EXTT12=
EXTT13=
EXTT14=
EXTT15=
EXTT16=
EXTT17=
EXTT18=
EXTT19=
EXTT20=
EXTT21=
EXTT22=
EXTT23=
EXTT24=
EXTT25=
EXTT26=
EXTT27=
EXTT28=
EXTT29=
EXTT30=
EXTT31=
EXTT32=
EXTT33=
EXTT34=
EXTT35=
EXTT36=
EXTT37=
EXTT38=
EXTT39=
EXTT40=
EXTT41=
EXTT42=
EXTT43=
EXTT44=
EXTT45=
EXTT46=
EXTT47=
EXTT48=
EXTT49=
EXTT50=
EXTT51=
EXTT52=
EXTT53=
EXTT54=
EXTT55=
EXTT56=
EXTT57=
EXTT58=
EXTT59=
EXTT60=
EXTT61=
EXTT62=
PLAYORDER=
